<svg width="37" height="25" viewBox="0 0 37 25" fill="none" xmlns="http://www.w3.org/2000/svg">
<g clip-path="url(#clip0_497_117)">
<path d="M36.1871 0.691665C35.6655 0.250888 34.9581 0.00323846 34.2205 0.00317328C33.483 0.0031081 32.7755 0.250633 32.2539 0.691318L18.4837 12.3272L4.71561 0.688884C4.19103 0.260598 3.4884 0.0235765 2.75906 0.0288678C2.02972 0.0341592 1.33203 0.281341 0.81625 0.717177C0.300475 1.15301 0.0078819 1.74263 0.00149122 2.35903C-0.00490328 2.97543 0.275421 3.5693 0.78208 4.01274L16.5166 17.3133C17.0382 17.7541 17.7456 18.0017 18.4832 18.0018C19.2208 18.0018 19.9282 17.7543 20.4499 17.3136L36.1868 4.01587C36.7083 3.57505 37.0013 2.97722 37.0014 2.35384C37.0014 1.73046 36.7085 1.13257 36.1871 0.691665Z" fill="#F8F8F8"/>
</g>
<defs>
<clipPath id="clip0_497_117">
<rect width="37" height="25" fill="white"/>
</clipPath>
</defs>
</svg>
